<svg width="96" height="62" xmlns="http://www.w3.org/2000/svg" xmlns:xlink="http://www.w3.org/1999/xlink" overflow="hidden"><defs><clipPath id="clip0"><path d="M788 260 884 260 884 322 788 322Z" fill-rule="evenodd" clip-rule="evenodd"/></clipPath><clipPath id="clip1"><path d="M789 261 883 261 883 321 789 321Z" fill-rule="evenodd" clip-rule="evenodd"/></clipPath><clipPath id="clip2"><path d="M789 261 883 261 883 321 789 321Z" fill-rule="evenodd" clip-rule="evenodd"/></clipPath><clipPath id="clip3"><path d="M789 244 885 244 885 364 789 364Z" fill-rule="evenodd" clip-rule="evenodd"/></clipPath></defs><g clip-path="url(#clip0)" transform="translate(-788 -260)"><g clip-path="url(#clip1)"><g clip-path="url(#clip2)"><g clip-path="url(#clip3)"><path d="M87.3037 334.103C86.2522 334.108 85.2457 334.53 84.5053 335.277L47.6156 370.927 10.7259 335.277C9.96526 334.52 8.93064 334.104 7.8578 334.122 5.66603 334.162 3.92143 335.971 3.96114 338.163 3.98052 339.232 4.43108 340.249 5.21063 340.982L44.8561 379.298C46.3947 380.787 48.8365 380.787 50.3752 379.298L90.0206 340.982C91.6279 339.492 91.7226 336.98 90.232 335.373 89.4766 334.558 88.4145 334.098 87.3036 334.103Z" fill-rule="evenodd" transform="matrix(1.00265 0 -0 1 789 -65.1209)"/></g></g></g></g></svg>