<svg id="Capa_1" enable-background="new 0 0 512 512" height="512" viewBox="0 0 512 512" width="512" xmlns="http://www.w3.org/2000/svg"><g><path d="m374.562 246.235c-4.132-.082-7.56 3.22-7.636 7.361-.869 47.387-8.922 70.169-54.874 111.679-8.478 7.659-11.371 20.658-8.847 39.742.499 3.773 3.721 6.518 7.426 6.518.328 0 .659-.021.993-.066 4.106-.543 6.995-4.313 6.452-8.418-1.752-13.25-.321-22.712 4.032-26.644 24.655-22.271 38.834-39.437 47.411-57.397 8.281-17.341 11.875-36.213 12.405-65.138.076-4.143-3.22-7.562-7.362-7.637z"/><path d="m326.142 435.908c-1.292-3.936-5.529-6.079-9.464-4.788-3.936 1.292-6.079 5.529-4.788 9.464 1.398 4.261 2.969 8.741 4.67 13.317.887 2.386.728 4.94-.449 7.191-1.175 2.248-3.179 3.835-5.642 4.469l-121.098 31.159c-4.288 1.106-8.771-1.145-10.432-5.227-7.349-18.069-24.562-60.391-68.665-54.417-12.293 1.697-38.216 5.685-45.248 4.321-18.174-2.969-22.308-11.554-23.837-17.753-1.457-5.739.254-10.606 3.082-15.036 3.193-5.696 1.313-13.424-4.189-17.227-2.569-1.776-5.387-3.017-7.67-3.838.279-.882 1.074-2.056 3.011-3.45 1.647-1.186 2.745-2.989 3.04-4.998s-.237-4.051-1.474-5.661c-.361-.47-3.668-4.671-10.587-10.242 5.46-4.134 13.877-12.071 12.636-20.991-.579-4.161-3.375-9.767-13.409-12.847-10.614-3.258-10.624-7.323-10.628-9.507-.006-2.971 1.549-4.982 7.239-9.354 8.811-6.771 18.882-15.583 26.773-29.604 2.811-4.993 3.145-11.092.896-16.316-1.273-2.958-3.011-5.705-4.691-8.362-2.156-3.409-4.839-7.651-4.366-9.683.297-1.275 1.166-3.106 2.17-5.226 2.57-5.422 6.09-12.849 6.832-24.191 1.487-22.752 8.954-42.759 22.195-59.463 2.573-3.246 2.027-7.963-1.219-10.536s-7.963-2.027-10.536 1.219c-15.17 19.139-23.719 41.951-25.408 67.803-.555 8.484-3.138 13.935-5.418 18.745-1.317 2.778-2.561 5.403-3.224 8.243-1.901 8.149 2.644 15.335 6.296 21.109 1.433 2.265 2.786 4.404 3.591 6.276.411.954.34 2.085-.19 3.027-5.293 9.406-11.911 16.668-22.841 25.068-5.227 4.014-13.124 10.082-13.1 21.279.026 11.486 7.167 19.498 21.227 23.813 1.235.379 2.047.74 2.562 1.017-1.25 2.123-5.129 5.785-8.782 8.167-.818.529-1.525 1.213-2.082 2.013-3.014 4.333-4.517 13.151 3.695 19.687 1.544 1.229 2.869 2.373 3.981 3.389-5.054 7.369-3.477 15.379-.439 19.822 2.188 2.972 4.829 2.736 10.09 5.144-2.847 5.104-6.506 12.623-3.626 24.302 3.937 15.963 16.042 25.708 35.982 28.965 9.877 1.753 32.329-1.887 49.677-4.26 28.634-3.874 42.279 19.437 52.759 45.205 3.711 9.125 12.64 14.852 22.152 14.852 1.959 0 3.944-.243 5.912-.749l121.099-31.159c6.536-1.682 12.075-6.073 15.198-12.048 3.124-5.978 3.567-13.036 1.215-19.365-1.633-4.395-3.14-8.691-4.478-12.768z"/><path d="m91.731 136.737c1.471 0 2.958-.432 4.26-1.333 24.608-17.025 57.77-26.401 93.376-26.401 4.505 0 9.093.123 13.639.364 4.143.23 7.667-2.955 7.887-7.091s-2.955-7.667-7.091-7.887c-4.809-.256-9.666-.385-14.435-.385-38.626 0-74.819 10.322-101.911 29.065-3.406 2.357-4.257 7.029-1.901 10.435 1.457 2.104 3.797 3.234 6.176 3.233z"/><path d="m260.808 359.329c1.919.304 3.848.453 5.771.453 8.203 0 16.29-2.72 22.838-7.793 8.198-6.353 13.258-15.557 14.248-25.917.001-.013.001-.026.002-.039 2.707-1.325 5.323-2.885 7.812-4.694 11.248-8.172 18.64-20.235 20.815-33.967.648-4.091-2.143-7.933-6.234-8.581-4.088-.647-7.933 2.144-8.581 6.234-1.548 9.775-6.81 18.362-14.816 24.179-8.007 5.817-17.801 8.169-27.574 6.62-5.422-.859-10.494-2.885-14.957-5.91 1.045-1.903 1.947-3.913 2.677-6.025 1.353-3.915-.725-8.186-4.64-9.538-3.913-1.352-8.186.725-9.538 4.64-3.753 10.867-14.731 17.445-26.104 15.644-3.421-.542-6.608-1.791-9.474-3.711-3.012-2.02-7.035-1.594-9.56 1.007-3.325 3.427-8.114 5.03-12.816 4.285-3.752-.594-7.084-2.594-9.383-5.629-1.801-2.38-4.842-3.466-7.746-2.763-2.652.643-5.377.75-8.095.32-10.604-1.68-18.239-11.37-17.382-22.06.296-3.699-2.156-7.059-5.77-7.903-4.882-1.141-8.237-5.61-7.978-10.626.143-2.767 1.354-5.312 3.412-7.167 1.445-1.23 5.069-3.202 9.046-2.456 3.961.807 7.85-1.668 8.793-5.599 1.954-8.143 9.465-13.732 17.827-13.307 3.095.161 6.093 1.144 8.67 2.843 2.055 1.355 4.644 1.616 6.926.698 4.295-1.727 8.994-2.254 13.588-1.528 3.966.628 7.7 2.197 10.929 4.506-1.522 2.767-2.569 5.805-3.078 9.017-.648 4.091 2.143 7.933 6.234 8.581.397.063.792.093 1.183.093 3.625 0 6.813-2.634 7.398-6.328.528-3.333 2.323-6.262 5.053-8.246 2.73-1.983 6.069-2.785 9.404-2.257 4.295.68 7.894 3.473 9.626 7.471 1.647 3.8 6.062 5.548 9.864 3.899 3.801-1.647 5.546-6.063 3.899-9.864-3.785-8.733-11.651-14.835-21.043-16.322-6.228-.986-12.462.156-17.871 3.212-5.523-4.47-12.167-7.456-19.253-8.578-6.026-.955-12.166-.542-17.969 1.184-3.97-1.979-8.326-3.13-12.787-3.361-13.417-.681-25.612 6.923-31.079 18.719-5.709.346-11.096 2.596-15.406 6.482-5.033 4.538-7.997 10.765-8.347 17.533-.493 9.557 4.381 18.303 12.208 23.026-4.454 3.003-9.679 4.624-15.124 4.624-.007 0-.013.001-.021 0-4.14 0-7.498 3.355-7.5 7.496-.002 4.142 3.354 7.502 7.496 7.504h.025c7.309 0 14.356-1.879 20.593-5.388 5.077 9.775 14.563 17.091 26.088 18.917 3.137.497 6.283.576 9.396.241 2.23 2.135 4.77 3.888 7.528 5.224l16.237 50.83c2.246 7.029 8.711 11.751 16.09 11.751h18.125c4.295 0 8.234-1.972 10.808-5.411s3.355-7.774 2.145-11.895l-7.174-24.415c3.088.338 5.763 1.314 7.735 2.829 4.886 3.753 10.699 6.248 16.811 7.216zm-48.449 16.675c-.826 0-1.55-.529-1.801-1.315l-13.911-43.545c4.663-.588 9.143-2.26 13.045-4.923 1.523.722 3.095 1.329 4.701 1.843l14.087 47.941h-16.121zm24.644-41.748c-2.088-.331-4.066-1.099-5.814-2.24l-.68-2.314c7.362-.808 14.26-3.716 19.928-8.253 6.575 4.754 14.167 7.902 22.306 9.191 2.757.437 5.515.652 8.253.652 2.086 0 4.161-.128 6.216-.376-1.448 3.603-3.821 6.768-6.981 9.216-4.897 3.794-10.962 5.352-17.075 4.382-3.647-.578-7.113-2.063-10.02-4.297-4.18-3.211-9.49-5.237-15.363-5.859-.258-.028-.516-.062-.77-.102z"/><path d="m86.925 293.082c1.357 0 2.73-.368 3.966-1.14 3.513-2.194 4.582-6.821 2.387-10.334-3.473-5.56-4.82-12.192-3.792-18.677.67-4.23 2.272-8.133 4.762-11.601 1.678-2.337 1.871-5.429.497-7.957-3.419-6.289-4.634-13.354-3.513-20.43 2.146-13.551 12.662-24.287 26.166-26.712 3.078-.553 5.489-2.958 6.052-6.033 2.538-13.886 15.946-23.384 29.89-21.178 2.949.467 5.773 1.423 8.393 2.843 3.201 1.735 7.186.919 9.448-1.932 8.254-10.4 21.515-15.573 34.611-13.5 4.092.65 7.934-2.144 8.581-6.234.648-4.091-2.144-7.933-6.234-8.581-16.473-2.608-33.127 2.925-44.772 14.575-2.482-.905-5.049-1.57-7.679-1.986-20.239-3.206-39.762 9.279-45.779 28.397-17.419 5.063-30.608 19.794-33.491 37.996-1.403 8.862-.306 17.713 3.171 25.853-2.471 4.364-4.12 9.101-4.917 14.134-1.593 10.056.498 20.344 5.886 28.971 1.422 2.276 3.866 3.526 6.367 3.526z"/><path d="m267.5 137.004c14.612 0 26.5-11.888 26.5-26.5s-11.888-26.5-26.5-26.5-26.5 11.888-26.5 26.5 11.888 26.5 26.5 26.5zm0-38c6.341 0 11.5 5.159 11.5 11.5s-5.159 11.5-11.5 11.5-11.5-5.159-11.5-11.5 5.159-11.5 11.5-11.5z"/><path d="m356 198.504c0-17.369-14.131-31.5-31.5-31.5s-31.5 14.131-31.5 31.5 14.131 31.5 31.5 31.5 31.5-14.131 31.5-31.5zm-31.5 16.5c-9.098 0-16.5-7.402-16.5-16.5s7.402-16.5 16.5-16.5 16.5 7.402 16.5 16.5-7.402 16.5-16.5 16.5z"/><path d="m467.5 108.504c-17.369 0-31.5 14.131-31.5 31.5s14.131 31.5 31.5 31.5 31.5-14.131 31.5-31.5-14.131-31.5-31.5-31.5zm0 48c-9.098 0-16.5-7.402-16.5-16.5s7.402-16.5 16.5-16.5 16.5 7.402 16.5 16.5-7.402 16.5-16.5 16.5z"/><path d="m308 125.004c0 15.439 12.561 28 28 28s28-12.561 28-28-12.561-28-28-28-28 12.56-28 28zm41 0c0 7.168-5.832 13-13 13s-13-5.832-13-13 5.832-13 13-13 13 5.831 13 13z"/><path d="m424 174.004c0-15.439-12.561-28-28-28s-28 12.561-28 28 12.561 28 28 28 28-12.561 28-28zm-28 13c-7.168 0-13-5.832-13-13s5.832-13 13-13 13 5.832 13 13-5.831 13-13 13z"/><path d="m313 85.004c17.645 0 32-14.355 32-32s-14.355-32-32-32-32 14.355-32 32 14.355 32 32 32zm0-49c9.374 0 17 7.626 17 17s-7.626 17-17 17-17-7.626-17-17 7.626-17 17-17z"/><path d="m482 .004c-16.542 0-30 13.458-30 30s13.458 30 30 30 30-13.458 30-30-13.458-30-30-30zm0 45c-8.271 0-15-6.729-15-15s6.729-15 15-15 15 6.729 15 15-6.729 15-15 15z"/><path d="m420.5 219.004c-12.407 0-22.5 10.093-22.5 22.5s10.093 22.5 22.5 22.5 22.5-10.093 22.5-22.5-10.093-22.5-22.5-22.5zm0 30c-4.136 0-7.5-3.364-7.5-7.5s3.364-7.5 7.5-7.5 7.5 3.364 7.5 7.5-3.364 7.5-7.5 7.5z"/><path d="m224.5 79.004c12.407 0 22.5-10.093 22.5-22.5s-10.093-22.5-22.5-22.5-22.5 10.093-22.5 22.5 10.093 22.5 22.5 22.5zm0-30c4.136 0 7.5 3.364 7.5 7.5s-3.364 7.5-7.5 7.5-7.5-3.364-7.5-7.5 3.364-7.5 7.5-7.5z"/><path d="m403.973 122.931c8.908 0 17.282-3.469 23.58-9.768 13.002-13.002 13.002-34.158 0-47.16-13.001-13.001-34.157-13.002-47.16 0-13.002 13.002-13.002 34.158 0 47.16 6.299 6.299 14.673 9.768 23.58 9.768zm-12.973-46.321c3.577-3.577 8.275-5.365 12.973-5.365 4.699 0 9.397 1.789 12.974 5.365 7.153 7.154 7.153 18.793 0 25.947-3.465 3.465-8.073 5.374-12.974 5.374-4.9 0-9.508-1.909-12.973-5.374-7.153-7.154-7.153-18.793 0-25.947z"/><path d="m267 175.004c0-12.682-10.318-23-23-23s-23 10.318-23 23 10.318 23 23 23 23-10.318 23-23zm-31 0c0-4.411 3.589-8 8-8s8 3.589 8 8-3.589 8-8 8-8-3.589-8-8z"/></g></svg>